<svg width="24" height="24" viewBox="0 0 24 24" fill="none" xmlns="http://www.w3.org/2000/svg">
<mask id="mask0_52_47" style="mask-type:alpha" maskUnits="userSpaceOnUse" x="0" y="0" width="24" height="24">
<rect width="24" height="24" fill="#D9D9D9"/>
</mask>
<g mask="url(#mask0_52_47)">
<path d="M2.81924 12L10.5345 19.7155C10.682 19.8628 10.7548 20.0391 10.753 20.2442C10.751 20.4494 10.6762 20.6256 10.5287 20.773C10.3814 20.9205 10.2052 20.9942 10 20.9942C9.79483 20.9942 9.61858 20.9205 9.47124 20.773L1.82874 13.1365C1.66724 12.975 1.54933 12.7949 1.47499 12.5962C1.40066 12.3974 1.36349 12.1986 1.36349 12C1.36349 11.8013 1.40066 11.6026 1.47499 11.4037C1.54933 11.2051 1.66724 11.025 1.82874 10.8635L9.47124 3.22122C9.61858 3.07372 9.79583 3.00097 10.003 3.00297C10.21 3.0048 10.3872 3.07947 10.5345 3.22697C10.682 3.3743 10.7557 3.55055 10.7557 3.75572C10.7557 3.96089 10.682 4.13714 10.5345 4.28447L2.81924 12Z" fill="white"/>
</g>
</svg>
