<svg width="24" height="24" viewBox="0 0 24 24" fill="none" xmlns="http://www.w3.org/2000/svg">
<mask id="mask0_51_41" style="mask-type:alpha" maskUnits="userSpaceOnUse" x="0" y="0" width="24" height="24">
<rect width="24" height="24" fill="#D9D9D9"/>
</mask>
<g mask="url(#mask0_51_41)">
<path d="M4.5 17.2692C4.35833 17.2692 4.23958 17.2212 4.14375 17.1252C4.04792 17.0292 4 16.9103 4 16.7685C4 16.6266 4.04792 16.508 4.14375 16.4125C4.23958 16.317 4.35833 16.2692 4.5 16.2692H19.5C19.6417 16.2692 19.7604 16.3172 19.8562 16.4132C19.9521 16.509 20 16.628 20 16.77C20 16.9118 19.9521 17.0305 19.8562 17.126C19.7604 17.2215 19.6417 17.2692 19.5 17.2692H4.5ZM4.5 12.5C4.35833 12.5 4.23958 12.452 4.14375 12.356C4.04792 12.26 4 12.141 4 11.9992C4 11.8574 4.04792 11.7387 4.14375 11.6432C4.23958 11.5477 4.35833 11.5 4.5 11.5H19.5C19.6417 11.5 19.7604 11.548 19.8562 11.644C19.9521 11.74 20 11.8589 20 12.0007C20 12.1425 19.9521 12.2612 19.8562 12.3567C19.7604 12.4522 19.6417 12.5 19.5 12.5H4.5ZM4.5 7.73071C4.35833 7.73071 4.23958 7.68271 4.14375 7.58671C4.04792 7.49088 4 7.37196 4 7.22996C4 7.08813 4.04792 6.96946 4.14375 6.87396C4.23958 6.77846 4.35833 6.73071 4.5 6.73071H19.5C19.6417 6.73071 19.7604 6.77871 19.8562 6.87471C19.9521 6.97071 20 7.08963 20 7.23146C20 7.3733 19.9521 7.49196 19.8562 7.58746C19.7604 7.68296 19.6417 7.73071 19.5 7.73071H4.5Z" fill="white"/>
</g>
</svg>
